<?xml version="1.0" encoding="utf-8"?>
<!-- Generator: Adobe Illustrator 21.0.2, SVG Export Plug-In . SVG Version: 6.00 Build 0)  -->
<svg version="1.1" id="Layer_1" xmlns="http://www.w3.org/2000/svg" xmlns:xlink="http://www.w3.org/1999/xlink" x="0px" y="0px"
	 viewBox="0 0 629.2 468.1" style="enable-background:new 0 0 629.2 468.1;" xml:space="preserve">
<style type="text/css">
	.st0{fill:#FFFFFF;}
</style>
<path class="st0" d="M307.9,56.2l-0.3,83.6l-154-0.1c-4.2,0-8.7,1.3-13.6,3.8c-4.9,2.5-9.6,5.8-14,9.8s-8.4,8.4-11.8,13.1
	c-3.4,4.7-5.7,9.2-6.9,13.3c-5.3,18.7-8,30.2-8,34.7c0,75.9,21.6,113.8,64.9,113.8h143.1v83.6H155.9c-2.7,0-7.2-0.6-13.6-1.8
	c-6.4-1.2-14.6-3-24.7-5.3c-12.4-2.7-24.4-8-35.8-16s-21.6-17.6-30.7-28.7c-9-11.1-16.7-23.4-22.9-36.9S18,296,16.2,282.1
	c-2.7-20.4-4-35.9-4-46.2c0-26.7,3.8-51,11.3-73.1c7.6-22.1,18.2-41,32-56.7s30.3-27.9,49.6-36.7c19.4-8.7,40.8-13.1,64.6-13.1
	H307.9z"/>
<path class="st0" d="M617,411.9h-83.6L531,275l-32.2,0.3H417v136.5h-81.3V56.2h82.7v136.5H534V56.2H617V411.9z"/>
<g id="w9elMU_4_">
	<g>
		<path class="st0" d="M149.1,236.8c7.5-2.6,7.9-3.2,6-10.9c-1.1-4.3-2.3-8.7-3.6-13.8c2.1,0.5,3.7,0.8,5.3,1.2
			c11.7,3.1,11.8,4.5,17.4-6.6c4,4.5,7.9,9.1,12,13.4c1.2,1.2,3,1.8,4.6,2.6c0.3-1.9,1.1-3.8,0.8-5.5c-1.9-10-4-20-6.2-30.7
			c3.1,1.8,5.6,3.1,8,4.7c3.2,2.2,5.2,1.7,6.9-2c2.8-6.2,6.1-12.1,9.5-18.9c3.3,6.4,6.3,12.3,9.3,18.2c2.7,5.2,2.8,5.3,7.9,2.3
			c2.1-1.2,4.2-2.5,7.1-4.3c-1.5,7.6-2.9,14.4-4.2,21.2c-0.7,3.7-1.7,7.5-2.2,11.2c-0.2,1.2,0.8,2.6,1.2,3.9
			c1.2-0.5,2.6-0.7,3.4-1.5c4.4-4.7,8.6-9.5,13.1-14.5c0.6,1,1.1,1.8,1.5,2.6c3,6.5,4.5,7.2,11.4,5.4c3-0.8,6-1.7,9.7-2.7
			c-1.3,5.1-2.5,9.5-3.6,13.9c-1.8,7.4-1.7,7.7,5.3,11.3c-3.3,2.8-6.5,5.5-9.6,8.2c-5.1,4.3-10.2,8.6-15.4,12.8
			c-5.1,4.1-5.6,5.9-3.1,11.9c0.5,1.1,0.9,2.2,1.6,3.9c-9.1-1.3-17.7-2.6-26.3-3.9c-4.9-0.7-5.8,0-5.6,5.1c0.4,8.6,0.9,17.1,1.3,26
			c-1.9,0-3.6,0-5.8,0c0.3-6.6,0.6-13.2,0.9-19.8c0.1-2.5,0.2-4.9,0.4-7.3c0.3-3.6-1.5-4.6-4.8-4.1c-8.1,1.2-16.2,2.5-24.3,3.7
			c-0.8,0.1-1.6,0-3.2,0c6.9-8.9,1.5-13.8-5.2-18.8c-6.3-4.7-12.2-10.1-18.3-15.1c-1-0.8-2.2-1.3-3.4-2
			C149.1,237.2,149.1,236.9,149.1,236.8z"/>
	</g>
</g>
</svg>
