<?xml version="1.0" encoding="utf-8"?>
<!-- Generator: Adobe Illustrator 21.0.2, SVG Export Plug-In . SVG Version: 6.00 Build 0)  -->
<svg version="1.1" id="Layer_1" xmlns="http://www.w3.org/2000/svg" xmlns:xlink="http://www.w3.org/1999/xlink" x="0px" y="0px"
	 viewBox="0 0 600 145" style="enable-background:new 0 0 600 145;" xml:space="preserve">
<style type="text/css">
	.st0{fill:#921D23;}
</style>
<path class="st0" d="M122.7,2l-0.1,32.9l-60.6,0c-1.7,0-3.4,0.5-5.4,1.5s-3.8,2.3-5.5,3.9s-3.3,3.3-4.6,5.2
	c-1.3,1.9-2.2,3.6-2.7,5.2c-2.1,7.4-3.1,11.9-3.1,13.7c0,29.9,8.5,44.8,25.6,44.8h56.3V142H62.8c-1.1,0-2.8-0.2-5.4-0.7
	c-2.5-0.5-5.7-1.2-9.7-2.1c-4.9-1.1-9.6-3.1-14.1-6.3c-4.5-3.1-8.5-6.9-12.1-11.3c-3.5-4.4-6.6-9.2-9-14.5c-2.4-5.3-4-10.7-4.7-16.2
	c-1.1-8-1.6-14.1-1.6-18.2c0-10.5,1.5-20.1,4.4-28.8c3-8.7,7.2-16.1,12.6-22.3s11.9-11,19.5-14.4C50.5,3.7,58.9,2,68.3,2H122.7z"/>
<path class="st0" d="M244.4,142h-32.9l-1-53.9l-12.7,0.1h-32.2V142h-32V2h32.6v53.7h45.5V2h32.7V142z"/>
<g>
	<path class="st0" d="M288.3,84.8c0,11.6-6.1,17.9-16.5,17.9c-13.7,0-17.4-9.5-17.4-20.4v-3.8c0-12.3,3.6-21.8,17.4-21.8
		c9.2,0,16.4,5,16.4,15.4h-8.3c-0.8-4.6-2.6-7.5-8.1-7.5c-8.3,0-8.5,6.8-8.5,13.7v4c0,6.1,0.5,12.7,8.5,12.7c6.4,0,7.8-4,8.3-10
		L288.3,84.8L288.3,84.8z"/>
	<path class="st0" d="M329,81c0,15.3-5.5,21.7-18,21.7c-12.7,0-18-6.4-18-21.9v-3.3c0-13.8,5.3-20.9,18-20.9c12.5,0,18,7.1,18,20.9
		V81z M320.2,78.5c0-7.5-1-13.9-9.1-13.9c-8.3,0-9.1,6.3-9.1,13.9v2.4c0.1,6.9,0.6,14,9.1,14c8.3,0,9.1-6.9,9.1-14V78.5z"/>
	<path class="st0" d="M361.9,102.4l-2.5-7.8h-15.2l-2.5,7.8h-9.2l14.5-41.5c1.3-3,2.9-3.8,5-3.8c2,0,3.5,0.6,4.6,3.8l14.5,41.5
		L361.9,102.4L361.9,102.4z M351.9,69.1L346.3,87h11L351.9,69.1z"/>
	<path class="st0" d="M408.4,84.8c0,11.6-6.1,17.9-16.5,17.9c-13.7,0-17.4-9.5-17.4-20.4v-3.8c0-12.3,3.6-21.8,17.4-21.8
		c9.2,0,16.4,5,16.4,15.4H400c-0.8-4.6-2.6-7.5-8.1-7.5c-8.3,0-8.5,6.8-8.5,13.7v4c0,6.1,0.5,12.7,8.5,12.7c6.4,0,7.8-4,8.3-10
		L408.4,84.8L408.4,84.8z"/>
	<path class="st0" d="M440.8,102.4V84.1h-16.6v18.3h-8.8V57.1h8.8v19.1h16.6V57.1h8.8v45.3L440.8,102.4L440.8,102.4z"/>
	<path class="st0" d="M499.1,102.4V84.1h-16.6v18.3h-8.8V57.1h8.8v19.1h16.6V57.1h8.8v45.3L499.1,102.4L499.1,102.4z"/>
	<path class="st0" d="M551.1,86.8c0,10.2-8,15.9-17.3,15.9c-9.3,0-17.3-5.7-17.3-15.9V57.1h8.8v29.4c0,5.8,3.7,8.3,8.5,8.3
		c4.8,0,8.5-2.5,8.5-8.3V57.1h8.8V86.8z"/>
	<path class="st0" d="M580.2,102.4h-6.1c-9.9,0-13.8-3-13.8-11.6V57.1h19.1c8.8,0,13.1,4.6,13.1,12.4c0,5-3.3,8.2-5.6,9.3
		c2.8,1.3,6.2,4.2,6.2,10.6C593.1,97.8,588.3,102.4,580.2,102.4z M578.7,65h-9.6v9.8h9.6c3.7,0,4.9-2.1,4.9-5S582.5,65,578.7,65z
		 M579.3,82.7h-10.2v7.1c0,3.6,1.8,4.6,5.6,4.6h4.6c4,0,5-2.5,5-5.6C584.3,85.2,583.3,82.7,579.3,82.7z"/>
</g>
<g id="w9elMU_4_">
	<g>
		<path class="st0" d="M60.2,73.1c3-1,3.1-1.3,2.4-4.3c-0.4-1.7-0.9-3.4-1.4-5.4c0.8,0.2,1.5,0.3,2.1,0.5c4.6,1.2,4.6,1.8,6.9-2.6
			c1.6,1.8,3.1,3.6,4.7,5.3c0.5,0.5,1.2,0.7,1.8,1c0.1-0.7,0.4-1.5,0.3-2.2c-0.7-3.9-1.6-7.9-2.4-12.1c1.2,0.7,2.2,1.2,3.1,1.9
			c1.3,0.9,2,0.7,2.7-0.8c1.1-2.4,2.4-4.8,3.7-7.4c1.3,2.5,2.5,4.8,3.7,7.2c1.1,2,1.1,2.1,3.1,0.9c0.8-0.5,1.7-1,2.8-1.7
			c-0.6,3-1.1,5.7-1.7,8.3c-0.3,1.5-0.7,3-0.9,4.4c-0.1,0.5,0.3,1,0.5,1.5c0.5-0.2,1-0.3,1.3-0.6c1.7-1.9,3.4-3.7,5.2-5.7
			c0.2,0.4,0.4,0.7,0.6,1c1.2,2.6,1.8,2.8,4.5,2.1c1.2-0.3,2.4-0.7,3.8-1.1c-0.5,2-1,3.7-1.4,5.5c-0.7,2.9-0.7,3,2.1,4.4
			c-1.3,1.1-2.6,2.2-3.8,3.2c-2,1.7-4,3.4-6.1,5c-2,1.6-2.2,2.3-1.2,4.7c0.2,0.4,0.4,0.9,0.6,1.5c-3.6-0.5-7-1-10.4-1.5
			c-1.9-0.3-2.3,0-2.2,2c0.2,3.4,0.4,6.7,0.5,10.2c-0.7,0-1.4,0-2.3,0c0.1-2.6,0.2-5.2,0.4-7.8c0-1,0.1-1.9,0.2-2.9
			c0.1-1.4-0.6-1.8-1.9-1.6c-3.2,0.5-6.4,1-9.6,1.5c-0.3,0-0.6,0-1.3,0c2.7-3.5,0.6-5.4-2-7.4c-2.5-1.9-4.8-4-7.2-5.9
			c-0.4-0.3-0.9-0.5-1.3-0.8C60.2,73.3,60.2,73.1,60.2,73.1z"/>
	</g>
</g>
</svg>
