<?xml version="1.0" encoding="utf-8"?>
<!-- Generator: Adobe Illustrator 21.0.2, SVG Export Plug-In . SVG Version: 6.00 Build 0)  -->
<svg version="1.1" id="Layer_1" xmlns="http://www.w3.org/2000/svg" xmlns:xlink="http://www.w3.org/1999/xlink" x="0px" y="0px"
	 viewBox="0 0 775 144" style="enable-background:new 0 0 775 144;" xml:space="preserve">
<style type="text/css">
	.st0{fill:#FFFFFF;}
</style>
<path class="st0" d="M118.7,2l-0.1,32.9H58c-1.7,0-3.4,0.5-5.4,1.5s-3.8,2.3-5.5,3.9s-3.3,3.3-4.6,5.2s-2.2,3.6-2.7,5.2
	c-2.1,7.4-3.1,11.9-3.1,13.7c0,29.9,8.5,44.8,25.6,44.8h56.3V142H58.8c-1.1,0-2.8-0.2-5.4-0.7c-2.5-0.5-5.7-1.2-9.7-2.1
	c-4.9-1.1-9.6-3.1-14.1-6.3c-4.5-3.1-8.5-6.9-12.1-11.3c-3.5-4.4-6.6-9.2-9-14.5s-4-10.7-4.7-16.2c-1.1-8-1.6-14.1-1.6-18.2
	c0-10.5,1.5-20.1,4.4-28.8c3-8.7,7.2-16.1,12.6-22.3s11.9-11,19.5-14.4C46.5,3.7,54.9,2,64.3,2H118.7z"/>
<path class="st0" d="M240.4,142h-32.9l-1-53.9l-12.7,0.1h-32.2V142h-32V2h32.6v53.7h45.5V2h32.7L240.4,142L240.4,142z"/>
<g>
	<path class="st0" d="M324.2,79.4c0,17-9,26.3-24.2,26.3c-20.1,0-25.6-14-25.6-30v-5.6c0-18.1,5.3-32,25.6-32
		c13.5,0,24.1,7.3,24.1,22.6h-12.2c-1.2-6.8-3.8-11-11.9-11c-12.2,0-12.5,10-12.5,20.1v5.9c0,9,0.7,18.7,12.5,18.7
		c9.4,0,11.5-5.9,12.2-14.7L324.2,79.4L324.2,79.4z"/>
	<path class="st0" d="M384,73.8c0,22.5-8.1,31.9-26.4,31.9c-18.7,0-26.4-9.4-26.4-32.2v-4.8c0-20.3,7.8-30.7,26.4-30.7
		c18.4,0,26.4,10.4,26.4,30.7V73.8z M371.1,70.1c0-11-1.5-20.4-13.4-20.4c-12.2,0-13.4,9.3-13.4,20.4v3.5
		c0.1,10.1,0.9,20.6,13.4,20.6c12.2,0,13.4-10.1,13.4-20.6V70.1z"/>
	<path class="st0" d="M432.3,105.3l-3.7-11.5h-22.3l-3.7,11.5h-13.5l21.3-61c1.9-4.4,4.3-5.6,7.3-5.6c2.9,0,5.1,0.9,6.8,5.6l21.3,61
		H432.3L432.3,105.3z M417.6,56.3l-8.2,26.3h16.2L417.6,56.3z"/>
	<path class="st0" d="M500.6,79.4c0,17-9,26.3-24.2,26.3c-20.1,0-25.6-14-25.6-30v-5.6c0-18.1,5.3-32,25.6-32
		c13.5,0,24.1,7.3,24.1,22.6h-12.2c-1.2-6.8-3.8-11-11.9-11c-12.2,0-12.5,10-12.5,20.1v5.9c0,9,0.7,18.7,12.5,18.7
		c9.4,0,11.5-5.9,12.2-14.7L500.6,79.4L500.6,79.4z"/>
	<path class="st0" d="M548.2,105.3V78.4h-24.4v26.9h-12.9V38.7h12.9v28.1h24.4V38.7h12.9v66.6L548.2,105.3L548.2,105.3z"/>
	<path class="st0" d="M633.9,105.3V78.4h-24.4v26.9h-12.9V38.7h12.9v28.1h24.4V38.7h12.9v66.6L633.9,105.3L633.9,105.3z"/>
	<path class="st0" d="M710.3,82.3c0,15-11.8,23.4-25.4,23.4c-13.7,0-25.4-8.4-25.4-23.4V38.7h12.9v43.2c0,8.5,5.4,12.2,12.5,12.2
		s12.5-3.7,12.5-12.2V38.7h12.9V82.3z"/>
	<path class="st0" d="M753,105.3h-9c-14.5,0-20.3-4.4-20.3-17V38.7h28.1c12.9,0,19.2,6.8,19.2,18.2c0,7.3-4.8,12-8.2,13.7
		c4.1,1.9,9.1,6.2,9.1,15.6C772,98.5,764.9,105.3,753,105.3z M750.8,50.3h-14.1v14.4h14.1c5.4,0,7.2-3.1,7.2-7.3
		S756.4,50.3,750.8,50.3z M751.7,76.3h-15v10.4c0,5.3,2.6,6.8,8.2,6.8h6.8c5.9,0,7.3-3.7,7.3-8.2C759.1,80,757.6,76.3,751.7,76.3z"
		/>
</g>
<g id="w9elMU_4_">
	<g>
		<path class="st0" d="M56.2,73.1c3-1,3.1-1.3,2.4-4.3c-0.4-1.7-0.9-3.4-1.4-5.4c0.8,0.2,1.5,0.3,2.1,0.5c4.6,1.2,4.6,1.8,6.9-2.6
			c1.6,1.8,3.1,3.6,4.7,5.3c0.5,0.5,1.2,0.7,1.8,1c0.1-0.7,0.4-1.5,0.3-2.2c-0.7-3.9-1.6-7.9-2.4-12.1c1.2,0.7,2.2,1.2,3.1,1.9
			c1.3,0.9,2,0.7,2.7-0.8c1.1-2.4,2.4-4.8,3.7-7.4c1.3,2.5,2.5,4.8,3.7,7.2c1.1,2,1.1,2.1,3.1,0.9c0.8-0.5,1.7-1,2.8-1.7
			c-0.6,3-1.1,5.7-1.7,8.3c-0.3,1.5-0.7,3-0.9,4.4c-0.1,0.5,0.3,1,0.5,1.5c0.5-0.2,1-0.3,1.3-0.6c1.7-1.9,3.4-3.7,5.2-5.7
			c0.2,0.4,0.4,0.7,0.6,1c1.2,2.6,1.8,2.8,4.5,2.1c1.2-0.3,2.4-0.7,3.8-1.1c-0.5,2-1,3.7-1.4,5.5c-0.7,2.9-0.7,3,2.1,4.4
			c-1.3,1.1-2.6,2.2-3.8,3.2c-2,1.7-4,3.4-6.1,5c-2,1.6-2.2,2.3-1.2,4.7c0.2,0.4,0.4,0.9,0.6,1.5c-3.6-0.5-7-1-10.4-1.5
			c-1.9-0.3-2.3,0-2.2,2c0.2,3.4,0.4,6.7,0.5,10.2c-0.7,0-1.4,0-2.3,0c0.1-2.6,0.2-5.2,0.4-7.8c0-1,0.1-1.9,0.2-2.9
			c0.1-1.4-0.6-1.8-1.9-1.6c-3.2,0.5-6.4,1-9.6,1.5c-0.3,0-0.6,0-1.3,0c2.7-3.5,0.6-5.4-2-7.4c-2.5-1.9-4.8-4-7.2-5.9
			c-0.4-0.3-0.9-0.5-1.3-0.8C56.2,73.3,56.2,73.1,56.2,73.1z"/>
	</g>
</g>
<g>
</g>
<g>
</g>
<g>
</g>
<g>
</g>
<g>
</g>
<g>
</g>
<g>
</g>
<g>
</g>
<g>
</g>
<g>
</g>
<g>
</g>
<g>
</g>
<g>
</g>
<g>
</g>
<g>
</g>
</svg>
