<?xml version="1.0" encoding="utf-8"?>
<!-- Generator: Adobe Illustrator 21.0.2, SVG Export Plug-In . SVG Version: 6.00 Build 0)  -->
<svg version="1.1" id="Layer_1" xmlns="http://www.w3.org/2000/svg" xmlns:xlink="http://www.w3.org/1999/xlink" x="0px" y="0px"
	 viewBox="0 0 246 145" style="enable-background:new 0 0 246 145;" xml:space="preserve">
<style type="text/css">
	.st0{fill:#FFFFFF;}
</style>
<path class="st0" d="M120.7,3l-0.1,32.9H60c-1.7,0-3.4,0.5-5.4,1.5s-3.8,2.3-5.5,3.9s-3.3,3.3-4.6,5.2s-2.2,3.6-2.7,5.2
	c-2.1,7.4-3.1,11.9-3.1,13.7c0,29.9,8.5,44.8,25.6,44.8h56.3V143H60.8c-1.1,0-2.8-0.2-5.4-0.7c-2.5-0.5-5.7-1.2-9.7-2.1
	c-4.9-1.1-9.6-3.1-14.1-6.3c-4.5-3.1-8.5-6.9-12.1-11.3c-3.5-4.4-6.6-9.2-9-14.5s-4-10.7-4.7-16.2c-1.1-8-1.6-14.1-1.6-18.2
	c0-10.5,1.5-20.1,4.4-28.8c3-8.7,7.2-16.1,12.6-22.3s11.9-11,19.5-14.4C48.5,4.7,56.9,3,66.3,3H120.7z"/>
<path class="st0" d="M242.4,143h-32.9l-1-53.9l-12.7,0.1h-32.2V143h-32V3h32.6v53.7h45.5V3h32.7L242.4,143L242.4,143z"/>
<g id="w9elMU_4_">
	<g>
		<path class="st0" d="M58.2,74.1c3-1,3.1-1.3,2.4-4.3c-0.4-1.7-0.9-3.4-1.4-5.4c0.8,0.2,1.5,0.3,2.1,0.5c4.6,1.2,4.6,1.8,6.9-2.6
			c1.6,1.8,3.1,3.6,4.7,5.3c0.5,0.5,1.2,0.7,1.8,1c0.1-0.7,0.4-1.5,0.3-2.2c-0.7-3.9-1.6-7.9-2.4-12.1c1.2,0.7,2.2,1.2,3.1,1.9
			c1.3,0.9,2,0.7,2.7-0.8c1.1-2.4,2.4-4.8,3.7-7.4c1.3,2.5,2.5,4.8,3.7,7.2c1.1,2,1.1,2.1,3.1,0.9c0.8-0.5,1.7-1,2.8-1.7
			c-0.6,3-1.1,5.7-1.7,8.3c-0.3,1.5-0.7,3-0.9,4.4c-0.1,0.5,0.3,1,0.5,1.5c0.5-0.2,1-0.3,1.3-0.6c1.7-1.9,3.4-3.7,5.2-5.7
			c0.2,0.4,0.4,0.7,0.6,1c1.2,2.6,1.8,2.8,4.5,2.1c1.2-0.3,2.4-0.7,3.8-1.1c-0.5,2-1,3.7-1.4,5.5c-0.7,2.9-0.7,3,2.1,4.4
			c-1.3,1.1-2.6,2.2-3.8,3.2c-2,1.7-4,3.4-6.1,5c-2,1.6-2.2,2.3-1.2,4.7c0.2,0.4,0.4,0.9,0.6,1.5c-3.6-0.5-7-1-10.4-1.5
			c-1.9-0.3-2.3,0-2.2,2c0.2,3.4,0.4,6.7,0.5,10.2c-0.7,0-1.4,0-2.3,0c0.1-2.6,0.2-5.2,0.4-7.8c0-1,0.1-1.9,0.2-2.9
			c0.1-1.4-0.6-1.8-1.9-1.6c-3.2,0.5-6.4,1-9.6,1.5c-0.3,0-0.6,0-1.3,0c2.7-3.5,0.6-5.4-2-7.4c-2.5-1.9-4.8-4-7.2-5.9
			c-0.4-0.3-0.9-0.5-1.3-0.8C58.2,74.3,58.2,74.1,58.2,74.1z"/>
	</g>
</g>
<g>
</g>
<g>
</g>
<g>
</g>
<g>
</g>
<g>
</g>
<g>
</g>
<g>
</g>
<g>
</g>
<g>
</g>
<g>
</g>
<g>
</g>
<g>
</g>
<g>
</g>
<g>
</g>
<g>
</g>
</svg>
